<svg preserveAspectRatio="none" width="100%" height="100%" overflow="visible" style="display: block;" viewBox="0 0 37.1439 24.5" fill="none" xmlns="http://www.w3.org/2000/svg">
<g id="Group 2">
<path id="Union" opacity="0.34" d="M32.0719 2.5C33.1764 2.50004 34.0719 3.39546 34.0719 4.5V22.5C34.0719 23.6045 33.1764 24.5 32.0719 24.5H5.07185C3.96728 24.5 3.07185 23.6046 3.07185 22.5V4.5C3.07185 3.39543 3.96728 2.5 5.07185 2.5H17.8219V2C17.8219 0.895431 18.7173 0 19.8219 0H29.0719C30.1764 4.33088e-05 31.0719 0.895457 31.0719 2V2.5H32.0719Z" fill="var(--fill-0, #6F00ED)"/>
<path id="Union_2" opacity="0.7" d="M33.8219 3.75C34.9264 3.75004 35.8219 4.64546 35.8219 5.75V22.5C35.8219 23.6045 34.9264 24.5 33.8219 24.5H3.32185C2.21728 24.5 1.32185 23.6046 1.32185 22.5V5.75C1.32185 4.64543 2.21728 3.75 3.32185 3.75H11.0719V3.25C11.0719 2.14543 11.9673 1.25 13.0719 1.25H22.3219C23.4264 1.25004 24.3219 2.14546 24.3219 3.25V3.75H33.8219Z" fill="var(--fill-0, #6F00ED)"/>
<path id="Union_3" d="M35.1432 5.5C36.315 5.5 37.2362 6.50335 37.1363 7.6709L35.8531 22.6709C35.7644 23.7053 34.8991 24.4998 33.8609 24.5H3.28281C2.2446 24.4998 1.37934 23.7053 1.29062 22.6709L0.00741683 7.6709C-0.0924394 6.50335 0.828769 5.5 2.00058 5.5H3.32187V5C3.32187 3.89543 4.2173 3 5.32187 3H14.5719C15.6764 3.00001 16.5719 3.89544 16.5719 5V5.5H35.1432Z" fill="var(--fill-0, #6F00ED)"/>
</g>
</svg>
